<?xml version="1.0" encoding="UTF-8" standalone="no"?>
<svg
   id="Layer_2"
   viewBox="0 0 772 291.44"
   version="1.1"
   sodipodi:docname="fef_black.svg"
   inkscape:version="1.1.2 (0a00cf5339, 2022-02-04)"
   xmlns:inkscape="http://www.inkscape.org/namespaces/inkscape"
   xmlns:sodipodi="http://sodipodi.sourceforge.net/DTD/sodipodi-0.dtd"
   xmlns="http://www.w3.org/2000/svg"
   xmlns:svg="http://www.w3.org/2000/svg">
  <sodipodi:namedview
     id="namedview40"
     pagecolor="#ffffff"
     bordercolor="#666666"
     borderopacity="1.0"
     inkscape:pageshadow="2"
     inkscape:pageopacity="0.0"
     inkscape:pagecheckerboard="0"
     showgrid="false"
     inkscape:zoom="0.30233364"
     inkscape:cx="337.37562"
     inkscape:cy="105.84333"
     inkscape:window-width="1072"
     inkscape:window-height="487"
     inkscape:window-x="960"
     inkscape:window-y="556"
     inkscape:window-maximized="0"
     inkscape:current-layer="Layer_2" />
  <defs
     id="defs4">
    <style
       id="style2">.cls-1{fill:#fff;}</style>
  </defs>
  <g
     id="Layer_2-2"
     style="fill:#000000">
    <path
       class="cls-1"
       d="m 600.06,290.34 h 12.75 l 6.98,-32.91 h 17.98 l 2.4,-11.01 h -17.98 l 4.47,-21.36 h 22.89 l 2.4,-11.01 h -35.64 l -16.24,76.29 z"
       id="path6"
       style="fill:#000000" />
    <path
       class="cls-1"
       d="m 664.53,291.43 c 11.23,0 18.42,-6.65 20.93,-18.31 l 12.53,-59.07 h -12.1 l -12.42,58.53 c -1.09,5.45 -4.03,7.85 -8.39,7.85 -4.8,0 -7.63,-2.18 -7.63,-6.54 0,-0.87 0.11,-1.85 0.33,-2.94 l 12.1,-56.89 h -12.64 l -11.66,54.93 c -0.44,2.18 -0.65,4.14 -0.65,5.99 0,11.12 8.28,16.46 19.62,16.46 h -0.02 z"
       id="path8"
       style="fill:#000000" />
    <path
       class="cls-1"
       d="m 690.57,290.34 h 36.73 l 2.29,-11.01 h -23.98 l 4.9,-22.78 h 19.18 l 2.29,-11.01 H 712.8 l 4.36,-20.49 h 23.98 l 2.4,-11.01 h -36.73 l -16.24,76.29 v 0 z"
       id="path10"
       style="fill:#000000" />
    <path
       class="cls-1"
       d="m 734.07,290.34 h 35.64 L 772,279.33 h -22.89 l 13.95,-65.28 h -12.75 z"
       id="path12"
       style="fill:#000000" />
    <path
       class="cls-1"
       d="M 30.69,135.52 H 53.02 L 65.24,77.88 h 31.49 l 4.2,-19.28 H 69.44 l 7.83,-37.41 h 40.08 L 121.54,1.91 H 59.13 Z"
       id="path14"
       style="fill:#000000" />
    <path
       class="cls-1"
       d="m 104.08,135.52 h 22.33 L 154.85,1.91 h -22.33 z"
       id="path16"
       style="fill:#000000" />
    <path
       class="cls-1"
       d="m 143.55,135.52 h 22.33 l 11.83,-56.5 h 10.31 c 12.02,0 14.51,3.82 11.64,16.99 l -4.58,21.19 c -2.48,11.26 -1.91,13.74 -1.53,18.32 h 21.95 c -1.15,-4.39 -0.19,-9.74 1.34,-16.42 l 4.2,-19.85 c 3.24,-15.27 0.38,-25.96 -10.5,-29.01 v -0.38 c 13.55,-4.01 19.09,-12.02 22.71,-28.06 l 0.57,-2.48 C 238.78,15.65 227.33,1.91 204.04,1.91 h -32.07 l -28.44,133.61 z m 38.36,-75.78 8.21,-38.56 h 10.31 c 9.35,0 13.93,5.34 11.64,15.84 l -1.34,6.49 c -2.29,11.45 -8.97,16.22 -19.66,16.22 h -9.16 z"
       id="path18"
       style="fill:#000000" />
    <path
       class="cls-1"
       d="m 265.13,137.43 c 25.39,0 38.56,-16.99 38.56,-40.66 0,-13.17 -5.92,-22.71 -19.85,-35.31 -13.36,-12.6 -15.46,-16.99 -15.46,-25 0,-9.35 4.96,-17.56 15.27,-17.56 6.87,0 12.41,3.24 12.41,11.26 0,2.48 -0.38,5.54 -1.15,9.16 h 20.99 c 0.76,-3.82 1.15,-7.63 1.15,-10.88 C 317.05,9.16 303.31,0 284.41,0 c -24.62,0 -37.6,15.84 -37.6,38.94 0,13.93 5.92,23.48 19.66,36.07 13.17,11.83 15.65,16.22 15.65,24.62 0,9.93 -4.96,18.9 -16.61,18.9 -8.02,0 -12.98,-4.2 -12.98,-11.83 0,-1.53 0.19,-3.44 0.38,-4.58 l 1.15,-6.11 h -20.8 l -0.76,3.44 c -0.57,3.44 -0.95,6.49 -0.95,9.54 0,19.47 14.89,28.44 33.59,28.44 v 0 z"
       id="path20"
       style="fill:#000000" />
    <path
       class="cls-1"
       d="m 327.89,135.52 h 22.14 L 374.27,21.19 h 25.39 l 4.01,-19.28 h -72.72 l -4.01,19.28 h 25.19 z"
       id="path22"
       style="fill:#000000" />
    <path
       class="cls-1"
       d="m 0,289.57 h 63.93 l 3.98,-19.16 H 26.18 l 8.54,-39.65 H 68.11 L 72.09,211.6 H 38.7 l 7.59,-35.66 h 41.73 l 4.17,-19.16 H 28.26 Z"
       id="path24"
       style="fill:#000000" />
    <path
       class="cls-1"
       d="m 76.09,289.57 h 62.03 l 3.98,-19.16 h -39.84 l 24.28,-113.63 h -22.19 z"
       id="path26"
       style="fill:#000000" />
    <path
       class="cls-1"
       d="m 149.04,289.57 h 63.93 l 3.98,-19.16 h -41.73 l 8.54,-39.65 h 33.39 l 3.98,-19.16 h -33.39 l 7.59,-35.66 h 41.73 l 4.17,-19.16 H 177.3 l -28.27,132.79 z"
       id="path28"
       style="fill:#000000" />
    <path
       class="cls-1"
       d="m 225.13,289.57 h 18.97 l 21.81,-102.81 -2.09,102.81 h 18.21 l 41.16,-102.81 -21.82,102.81 h 20.3 l 28.26,-132.79 h -30.92 l -38.7,97.5 3.23,-97.5 h -30.16 l -28.26,132.79 z"
       id="path30"
       style="fill:#000000" />
    <path
       class="cls-1"
       d="m 338.83,289.57 h 63.93 l 3.98,-19.16 h -41.73 l 8.54,-39.65 h 33.39 l 3.98,-19.16 h -33.39 l 7.59,-35.66 h 41.73 l 4.17,-19.16 h -63.93 z"
       id="path32"
       style="fill:#000000" />
    <path
       class="cls-1"
       d="m 414.92,289.57 h 19.73 l 21.25,-99.4 10.81,99.4 h 21.63 L 516.6,156.78 h -19.73 l -17.83,83.28 -9.11,-83.28 h -26.75 l -28.27,132.79 v 0 z"
       id="path34"
       style="fill:#000000" />
    <path
       class="cls-1"
       d="m 524.81,289.57 h 22 L 570.9,175.94 h 25.23 l 3.98,-19.16 h -72.27 l -3.98,19.16 h 25.04 z"
       id="path36"
       style="fill:#000000" />
  </g>
</svg>
