<?xml version="1.0" encoding="UTF-8"?><svg id="Layer_2" xmlns="http://www.w3.org/2000/svg" viewBox="0 0 772 291.44"><defs><style>.cls-1{fill:#fff;}</style></defs><g id="Layer_2-2"><path class="cls-1" d="M600.06,290.34h12.75l6.98-32.91h17.98l2.4-11.01h-17.98l4.47-21.36h22.89l2.4-11.01h-35.64l-16.24,76.29h-.01Z"/><path class="cls-1" d="M664.53,291.43c11.23,0,18.42-6.65,20.93-18.31l12.53-59.07h-12.1l-12.42,58.53c-1.09,5.45-4.03,7.85-8.39,7.85-4.8,0-7.63-2.18-7.63-6.54,0-.87,.11-1.85,.33-2.94l12.1-56.89h-12.64l-11.66,54.93c-.44,2.18-.65,4.14-.65,5.99,0,11.12,8.28,16.46,19.62,16.46h-.02Z"/><path class="cls-1" d="M690.57,290.34h36.73l2.29-11.01h-23.98l4.9-22.78h19.18l2.29-11.01h-19.18l4.36-20.49h23.98l2.4-11.01h-36.73l-16.24,76.29h0Z"/><path class="cls-1" d="M734.07,290.34h35.64l2.29-11.01h-22.89l13.95-65.28h-12.75l-16.24,76.29Z"/><path class="cls-1" d="M30.69,135.52h22.33l12.22-57.64h31.49l4.2-19.28h-31.49l7.83-37.41h40.08L121.54,1.91H59.13L30.69,135.52Z"/><path class="cls-1" d="M104.08,135.52h22.33L154.85,1.91h-22.33l-28.44,133.61Z"/><path class="cls-1" d="M143.55,135.52h22.33l11.83-56.5h10.31c12.02,0,14.51,3.82,11.64,16.99l-4.58,21.19c-2.48,11.26-1.91,13.74-1.53,18.32h21.95c-1.15-4.39-.19-9.74,1.34-16.42l4.2-19.85c3.24-15.27,.38-25.96-10.5-29.01v-.38c13.55-4.01,19.09-12.02,22.71-28.06l.57-2.48c4.96-23.67-6.49-37.41-29.78-37.41h-32.07l-28.44,133.61h.02Zm38.36-75.78l8.21-38.56h10.31c9.35,0,13.93,5.34,11.64,15.84l-1.34,6.49c-2.29,11.45-8.97,16.22-19.66,16.22h-9.16Z"/><path class="cls-1" d="M265.13,137.43c25.39,0,38.56-16.99,38.56-40.66,0-13.17-5.92-22.71-19.85-35.31-13.36-12.6-15.46-16.99-15.46-25,0-9.35,4.96-17.56,15.27-17.56,6.87,0,12.41,3.24,12.41,11.26,0,2.48-.38,5.54-1.15,9.16h20.99c.76-3.82,1.15-7.63,1.15-10.88,0-19.28-13.74-28.44-32.64-28.44-24.62,0-37.6,15.84-37.6,38.94,0,13.93,5.92,23.48,19.66,36.07,13.17,11.83,15.65,16.22,15.65,24.62,0,9.93-4.96,18.9-16.61,18.9-8.02,0-12.98-4.2-12.98-11.83,0-1.53,.19-3.44,.38-4.58l1.15-6.11h-20.8l-.76,3.44c-.57,3.44-.95,6.49-.95,9.54,0,19.47,14.89,28.44,33.59,28.44h0Z"/><path class="cls-1" d="M327.89,135.52h22.14l24.24-114.33h25.39l4.01-19.28h-72.72l-4.01,19.28h25.19l-24.24,114.33h0Z"/><path class="cls-1" d="M0,289.57H63.93l3.98-19.16H26.18l8.54-39.65h33.39l3.98-19.16H38.7l7.59-35.66h41.73l4.17-19.16H28.26L0,289.57Z"/><path class="cls-1" d="M76.09,289.57h62.03l3.98-19.16h-39.84l24.28-113.63h-22.19l-28.26,132.79Z"/><path class="cls-1" d="M149.04,289.57h63.93l3.98-19.16h-41.73l8.54-39.65h33.39l3.98-19.16h-33.39l7.59-35.66h41.73l4.17-19.16h-63.93l-28.27,132.79h.01Z"/><path class="cls-1" d="M225.13,289.57h18.97l21.81-102.81-2.09,102.81h18.21l41.16-102.81-21.82,102.81h20.3l28.26-132.79h-30.92l-38.7,97.5,3.23-97.5h-30.16l-28.26,132.79h.01Z"/><path class="cls-1" d="M338.83,289.57h63.93l3.98-19.16h-41.73l8.54-39.65h33.39l3.98-19.16h-33.39l7.59-35.66h41.73l4.17-19.16h-63.93l-28.26,132.79h0Z"/><path class="cls-1" d="M414.92,289.57h19.73l21.25-99.4,10.81,99.4h21.63l28.26-132.79h-19.73l-17.83,83.28-9.11-83.28h-26.75l-28.27,132.79h0Z"/><path class="cls-1" d="M524.81,289.57h22l24.09-113.63h25.23l3.98-19.16h-72.27l-3.98,19.16h25.04l-24.09,113.63h0Z"/></g></svg>